# xmcd
# 
# Track frame offsets:
#     150
#     9255
#     21822
#     34742
#     46590
#     58605
#     71120
#     87147
#     98515
#     107535
#     115554
#     125692
#     135557
#     146597
#     158852
#     170927
#     184620
#     194220
#     204735
#     220932
#     236057
#     247197
#     260260
#     270340
#     282340
# 
# Disc length: 3892
# 
# Revision: 3
# Processed by: cddbd v1.5.2PL0 Copyright (c) Steve Scherf et al.
# Submitted via: fre:ac v1.0.27
# 
DISCID=690f3219
DTITLE=Country Ballads - Country Ballads CD2
DYEAR=2002
DGENRE=Country
TTITLE0=Frankie Laine - Rawhide
TTITLE1=Faron young - It's four in the morning
TTITLE2=Lynn Anderson - Rose garden
TTITLE3=Al Hirt and Ace canon - Games people play
TTITLE4=Waylon jennings - Don't think twice it's allright
TTITLE5=Jerry Reed - East bounce and down
TTITLE6=Vince Gill - Cinderella
TTITLE7=Donna Fargo - Superman
TTITLE8=Willie Nelson - Walting time
TTITLE9=Jerry Lee Lewis - Your cheating heart
TTITLE10=Patsy cline - Three cigarettes in a ashtray
TTITLE11=Johnny Cash - Ballad of a teenage queen
TTITLE12=Carl smith - Hey Joe
TTITLE13=Conway Twitty - Crazy dreams
TTITLE14=Stonewall Jackson - I can't get enough of you
TTITLE15=Freddy Fender - Wasted days and wasted nights
TTITLE16=Dave Dudley - Six days on the road
TTITLE17=Hank Locklin - Please help me I'm falling
TTITLE18=Waylon Jennings - Honky Tonk heroe
TTITLE19=Lee Greenwood - Going, going, going
TTITLE20=George Jones - I'll share my world with you
TTITLE21=Ray Price - City lights
TTITLE22=Charley Pride - Is anybody going to San Antone
TTITLE23=Willie Nelson - Funny how time slips away
TTITLE24=Johnny Cash - Country boy
EXTD=YEAR: 2002
EXTT0=
EXTT1=
EXTT2=
EXTT3=
EXTT4=
EXTT5=
EXTT6=
EXTT7=
EXTT8=
EXTT9=
EXTT10=
EXTT11=
EXTT12=
EXTT13=
EXTT14=
EXTT15=
EXTT16=
EXTT17=
EXTT18=
EXTT19=
EXTT20=
EXTT21=
EXTT22=
EXTT23=
EXTT24=
PLAYORDER=
